<svg width="140" height="70" fill="none" xmlns="http://www.w3.org/2000/svg"><defs><clipPath id="a"><rect rx="-.5" width="139" height="69" transform="translate(.5 .5)" fill="#fff" fill-opacity="0"/></clipPath></defs><rect rx="-.5" width="139" height="69" transform="translate(.5 .5)" fill="none"/><g clip-path="url(#a)"><path d="M140 0H0l60.4 65.7c5.2 5.8 14 5.8 19.2 0L140 0Z" fill="#81B3D3"/><path d="m37.2.5 32.6 37.9L102.3.7l-65-.2Z" fill="#23A9E1"/><path d="M62 14.7h17.5c-1.3-.8-4.4-4.6-6-3.2-.2.1-5-5.7-8.2-2.9-2.7 2.5-4-.3-7 1.6-3.7 2.4 2 3.7 3.7 4.5Zm27-3.5-9.9.1c4-4.5 5.7-4 10-.1Z" fill="#FFF"/><path d="M99 3.6V1.2h2.1l-2 2.4ZM49.1 13c.1.1 2.4-2.4 6.2-4.9 3.4-2.3 8.7-4.9 14.6-4.9s11.3 2.7 14.7 5c3.8 2.4 6 4.8 6.2 4.9l-2.5 3c-4.6.6-7.9 3.9-12.3 3.2-2.3-.4-2.3-1.6-3-2.9-.5-1-1.3-.8-2.3-1.2-1-.4-1.5-1.1-3.4-.7-1.7.4-1.9 2.9-4 2.8-1.1-.1-1.2-1.6-2.8-3.6-4.2-4.9-8-4.3-10.6.2L49 13ZM40.6 1.2v1.9L39 1.2h1.6Zm54.7 0h3.2v3L95.3 8V1.2ZM91 12.6V1.2h3.6v7.4l-3.6 4Zm-.5-10.4v9.9a26.5 26.5 0 0 0-3.7-3l3.7-6.9Zm-4.2-.3v6.8l-1.5-1-2.2-1.3 3.7-4.5ZM82 1.7V6l-3.2-1.5L82 1.7Zm.6-.5h3.7l-3.7 4.6V1.2Zm4.3 0h3.7l-3.7 7.1V1.2Zm-8.9 0h4l-3.6 3.1-.3-.1v-3Zm-.5.4V4c-1-.4-2-.7-3.1-.9l3.1-1.5Zm-4.3 0v1.3L71 2.6l2.2-1Zm-6.9 0 2.3 1a8 8 0 0 0-2.3.3V1.6Zm-4.1 0 3.1 1.5c-1 .2-2.1.5-3.1.9V1.6Zm3.6 1.2-3.3-1.6h3.3v1.6Zm3.6-.4-2.9-1.3h2.9v1.3Zm.7-1.2h3l-3 1.3V1.2Zm3.8 0H77l-3.3 1.6V1.2ZM61.2 4.3l-3.6-3.1h4v3l-.4.1Zm-3.7-2.6 3.2 2.7c-1.1.4-2.2.9-3.2 1.5V1.7Zm-4.3.2 3.6 4.5c-1.3.7-2.5 1.5-3.6 2.4V1.9Zm-4.3.3 3.6 7c-1.3 1-2.5 2-3.6 3.2V2.2Zm3.8 6L49 1.1h3.6v7.1ZM57 5.7l-3.7-4.6H57v4.6ZM44.3 7.5l-3.2-3.8V1.2h3.2v6.3Zm.6-6.3h3.6v11.2l-3.6-4.2v-7ZM36.5 0v14.6L70 54.5 103.5 15V0h-67Z" fill="#491213"/><path d="m67.4 46 2.6-4.2 2.6 4.2-2.6 4.2-2.6-4.2Z" fill="#23A9E1"/><path d="M75.3 30.6c-3.5-2-2.7-3.5.2-4.9 1.5-.7 4.8-3.4 6.2-2.5l-6.4 7.4Zm-2.4 2.5c-2-.1-4.3-.4-6.4.1 1.3.3 4.3 1.2 1.5 1.9 1 1.4 2.6 1.3 3.6.1l-1-.7c1.1-.3 2.1-1 2.3-1.4Zm1.3-1.6c-1-.8-2-.8-2.8 0-1.2-2.1-5.5-1.4-7.5-1.7 1.1 2.6 9.8 3.1 10.3 1.7Zm-7-2.2c-1.6-.5-6.8-.4-3.4-1.8 1.1-.4 6.8.1 3.5 1.8Zm2-3c-.4-1.1.5-2.4 1.8-1.4 1.2.8-.6 2-1.7 1.4Zm-2.9.1c-2.3.7-5.3-.8-1.6-1.5 2.3-.5 4.8.5 1.6 1.5Zm-2.6-6.2c-.5 1.6-1.5 1.9-1.4 0 0-2.3 1.6-1.7 3.2-2.6 1.3-.7 2-3.4 4.4-1.8 1 .7 2.2.1 2.5 1.2 0-.1-3 6.7-1.3 6.7-3.2 0-1.8-3.8-.6-6.4-1.2.6-3.1 4.3-1.5 5-.8 1.1-3.5 2.6-4.8 1.5-1.1-1-.5-2.3-.5-3.6Zm-4 2.8c-5.7 0-1.9-8.6 0-8.1 2.3.7 2 8.2 0 8.1Zm-6.3-8.2c-2.7-.1-1.6-2.6.3-3.1 1.7-.5 5.2 1.1 6.4 2.2-1.8.6-4.1.5-6.1.6-.2-2-.7-1.3-.6.3Z" fill="#DC6243"/><path d="M72.8 25.8c-3-3 4.4-2.7 5.6-3.8.8.3 7.1-5.4 8.6-5-1 1.3-3.4 5.3-5 5.3-1.3 0-2.7-.2-3.7.7-1.5 1.4-4 2.1-5.5 2.8Z" fill="#F49774"/><path d="M73.8 22.2c-1.7.9-3.2-2.5-.4-2.2 1.9.2 3.8-.2 5.5.1a6 6 0 0 1-5.2 2.1Z" fill="#F4B1A4"/><path d="M51.8 20.9c.3.4.6.8.5 1.4 0 .4-.6 1-.2 1.2l1.6-1.8c-.4-.1-3.6-3.8-3.6-4.2L48 18.6c0 .4.8 0 1.2 0 .5 0 1 .4 1.3.7-1.1.9-3.8 3.3-4.1 3.3-.1 0-.8-.4-.8 0 0 .2.7.7.8.8l1.4 1.7c.4-.2-.1-.5 0-.8l4-3.4Zm-3.4-4.5c.3-.1.4.3.6 0l-1.6-1.9c-.2-.3-.5-.6-.5 0 0 .4-4 3.7-4.3 3.8-.3.1-.5-.3-.7.1l1.4 1.7.5.6c.2.2.1-.4.1-.4 0-.3.3-.6.6-.8 1-1 3.6-3.1 3.9-3.1Zm-5.8-.6c-1.1.3-2.4-.1-2.7-1.3-.4-1.2.4-2.4 1.3-3.1.9-.7 2.3-.6 2.8.5.2.5.1 1.1 0 1.6-.2.3-.5.6 0 .8l1.6-2.1c-.7-.4-1-1.1-1.5-1.7-.6-.7-1.3-1.4-2.3-1.5-2-.3-3.7 1.7-3.9 3.4 0 .9.2 1.8.9 2.6.5.6 1.2 1.1 1.6 1.8.2.1 1.8-.7 2.1-.8.2 0 .1-.1.1-.2Zm25.9 23.6c-.7-.5-2.7-3-3-3.5l-.3-.3-.2.1v.6c-.5.8-3.7 3.2-4 3.4-.3.2-.7-.1-1 .2l2 2.3c.4 0 .2-.5.2-.6 0-.2 1.7-1.6 2.3-2.1.2-.2.4.3.6.5.2.3.3.7.2 1 0 .2-.5.6-.2.8l1.8-2c.1-.2-.5 0-.4-.1-.2.1-.5.2-.7 0 0 0-.7-.7-.6-.8.3-.2.6-.6 1-.7.6-.1 1 1 1.2 1.4l-.1 1.1c-.1.3-.3.5 0 .6l1.4-1.9c0 .1-.1.1-.2 0ZM59 30.5c-.7 0-1.4.3-2 .8a3.5 3.5 0 0 0-.5 4.8c1.3 1.7 3.4 1.9 5.2.7a3.5 3.5 0 0 0 .5-4.8 4 4 0 0 0-3.2-1.5Zm1.3 1.4c.9-.1 1.5.8 1 1.8-.3 1-1.4 2-2.4 2.4-1.2.5-2-.5-1.5-1.7.4-1 1.4-2 2.5-2.4l.4-.1Zm-2.9-4.6c.3 0 .6.4.8 0L57 25.6c-.4.2 0 .4 0 .6-.3.3-1.8.5-2.2.6 0-.4.6-1.7.8-1.8.4-.3.6.3.8-.1l-1.8-2.1c-.2-.2-.4-.7-.6-.4l-.1 1.1c-.1.2-.6 2.4-1.3 2.9-.3.3-1.5 1.3-1.8 1.4-.3.1-.5-.4-.8 0l1.6 1.9.5.6c.3.1 0-.6.1-.7.1-.3 1.7-1.8 2.4-1.9.9-.2 2-.5 3-.4ZM82.1 34c0 .4.2.9 0 1.3 0 .6-.5 1.9-1.3 1.5-.9-.4-1.5-1.1-2.2-1.7.5-.6 1-1.1 2-.8.2.1.4 0 .2-.2-.4-.2-2-1.3-2.2-1.2-.2.2.3.6.1 1 0 .3-.4.5-.6.8-.5-.4-1.2-.8-.7-1.5.4-.4.8-.8 1.4-.9.4-.1 1.2.3 1.3-.1l-2-1c0 .5-2.3 2.9-2.8 3.5l-.4.5c0 .3.4.1.4.1.3-.1 4.4 3.3 4.5 3.6v.5l.2.1c.3-.3 3-4 3.6-4L82 33.1c-.4.2-.1.7 0 .9Zm-4 4.4c-1.4-.9-3.7.8-4.1 1-.8.3-1.3-.4-.9-1 .3-.5 1-.8 1.6-.8h.9v-.2c-.6-.4-1.1-.8-1.8-1.1 0 .7-.9 1.1-1.3 1.6-.5.6-1 1.3-1 2s.4 1.4 1.1 1.7c.7.4 1.6.1 2.3-.3a9 9 0 0 1 1.2-.8c.6-.3 1.5 0 1.3.8-.2.7-1 1.3-1.6 1.5-.4.1-.8.1-1.2-.1-.3-.1-.6-.5-.8-.1l2.3 1.6c0-.5.3-.7.7-1 .5-.4 1-.9 1.3-1.4.8-.9 1.1-2.5 0-3.4Zm17.8-28.1-1 1-.8 1c-.2.2-.3.3 0 .5.6-.3 3.6 4.8 3.4 5.5-.5.2-4.6-3.3-4.7-3.5 0-.1.2-.7 0-.6-.2 0-.6.6-.7.7l-.6.7c.2.3.3 0 .6 0l1.5 1.1h-1.9c-.6.2-.3-.3-.7-.5L89.5 18l-1 1v.1c.3.2.2.1.5 0s4.3 3.2 4.4 3.4c.2.3 0 .6.3.8l1.3-1.4v-.1c-.3-.2-.3.1-.8.1a44 44 0 0 1-3.8-3l5.4-.2c.2 0 .7.6.7.8-.1.2-.3.4 0 .5l.9-1.1v-.2c.2 0 .2-.1.2-.2v-.1c.4-.3 1.3-1.3 1.2-1.4-.3-.3-.4.3-.8 0l-1-1.4c-.1-.3.5-.6.7-.7.5-.3 2.1-.8 2.3.2 0 .2-.2.4 0 .5 0 0 0 .2.1.1l2.2-2.6-.3-.2c-.5.5-5.5-1.5-5.8-1.8-.1-.2-.1-.8-.3-.8Zm-.2 2.6 2.3 1a34.9 34.9 0 0 0-1.2.8l-1.1-1.8ZM89 20.6c-1.2-.1-2.3.4-3 1.3-1.3 1.5-1.2 3.7.3 4.9 1.5 1.2 3.8.9 5-.5 1.2-1.5 1.1-3.7-.4-4.9-.5-.4-1.2-.7-2-.8Zm-1.5 1.6c.7 0 1.4.4 1.8.7.8.5 2.2 1.7 1.5 2.7l-.1.1c-.8.8-2.2.1-3-.5-.7-.5-2-1.7-1.2-2.7.3-.2.6-.3 1-.3Zm-3.1 4.3c-1.2-.1-2.4.5-3.4 1.6l-1.9 2.3c.2.3.5-.1.8.1a51 51 0 0 1 4.2 3.5c.1.3-.2.4.1.6.1.1 3-3.4 3.2-4a3 3 0 0 0-.8-3.2c-.8-.6-1.5-.9-2.2-.9Zm-1.1 1.6h.3c1.4.4 3.4 2.1 2.1 3.6l-.4.4c-.2.2-4.3-3-4-3.2.4-.5 1.3-.9 2-.8Z" fill="#FFF"/></g></svg>