<svg width="74" height="70" fill="none" xmlns="http://www.w3.org/2000/svg"><path d="M5.1 31.5h63.87c0-.61.1-1.2.1-1.9v-1.21C68.37 12.7 54.33 0 37.09 0 19.74 0 5.71 12.7 5.01 28.5v1.27c0 .57 0 1.15.09 1.73ZM37.09 3c15.64 0 28.47 11.3 29.07 25.5H8.02C8.62 14.39 21.45 3 37.09 3Zm-7.82 9.2c1.05 0 1.9-.9 1.9-2 0-1.11-.85-2.01-1.9-2.01-1.05 0-1.91.9-1.91 2.01 0 1.1.86 2 1.91 2Zm17.44-2c0 1.1-.85 2-1.9 2-1.05 0-1.91-.9-1.91-2 0-1.11.86-2.01 1.91-2.01 1.05 0 1.9.9 1.9 2.01Zm-7.72 5.1c0 1.1-.85 1.99-1.9 1.99-1.05 0-1.91-.89-1.91-1.99 0-1.11.86-2 1.91-2 1.05 0 1.9.89 1.9 2ZM21.05 42.5l-5.42-4.11-5.31 4.11-6.21-4.7 1.7-2.5 4.51 3.4 5.31-4.1 5.42 4.1 5.31-4.1 5.31 4.1 5.32-4.1 5.41 4.1 5.31-4.1 5.32 4.1 5.41-4.1 5.31 4.1 4.52-3.4 1.7 2.5-6.22 4.7-5.31-4.11-5.41 4.11-5.32-4.11-5.31 4.11-5.41-4.11-5.32 4.11-5.31-4.11-5.31 4.11Zm49.02 4.2H4.11C1.8 46.7 0 48.6 0 51v3.5c0 2.39 1.9 4.3 4.11 4.3h.9v1.09c0 5.5 4.31 10.11 9.62 10.11h44.71c5.32 0 9.63-4.5 9.63-10.11V58.8h.9c2.31 0 4.11-1.91 4.11-4.3V51c.2-2.3-1.7-4.3-3.91-4.3Zm1.2 7.8c0 .7-.6 1.3-1.2 1.3H4.01c-.71 0-1.21-.6-1.21-1.3V51c0-.7.6-1.3 1.21-1.3h65.96c.7 0 1.2.6 1.2 1.3.1 0 .1 3.5.1 3.5Zm-5.11 5.39c0 3.91-3.01 7-6.72 7H14.63c-3.71 0-6.72-3.19-6.72-7V58.8h58.25v1.09Z" fill="#83B3D3" fill-rule="evenodd"/></svg>