<svg width="75" height="72" fill="none" xmlns="http://www.w3.org/2000/svg"><path d="m72.9 39.3 2.1-2.1-10-9.9V0H51.2v13.6L37.4 0 0 37.2l2.1 2.1 7.8-7.8v37.6H6V72h64.2v-2.9H65V31.5l7.9 7.8ZM62 24.3l-7.9-7.8V2.9h8v21.5Zm0 44.8H13V28.5L37.4 4.1 62 28.5v40.6Zm-32.2-42c0 4.3 3.5 7.7 7.7 7.7 4.4 0 7.9-3.5 7.9-7.7 0-4.3-3.5-7.7-7.9-7.7a7.7 7.7 0 0 0-7.7 7.7Zm7.8-5a5 5 0 0 1 5 4.9 5 5 0 0 1-5 4.9 5 5 0 0 1-5-4.9 5 5 0 0 1 5-4.9ZM20 41.2h-3v3.9h3v-3.9Zm5.9 0h-3v3.9h3v-3.9ZM29.6 65h16V41.2h-16V65ZM52 41.2h-3v3.9h3v-3.9Zm6 0h-3v3.9h3v-3.9Zm-25.5 2.9h10.2v18H32.5v-18ZM20 47.2h-3v3.9h3v-3.9Zm5.9 0h-3v3.9h3v-3.9Zm26.1 0h-3v3.9h3v-3.9Zm6 0h-3v3.9h3v-3.9Z" fill="#83B3D3" fill-rule="evenodd"/></svg>