<svg width="64" height="76" fill="none" xmlns="http://www.w3.org/2000/svg"><path d="M61.1 22.5H36.3c13.8-7 14.9-11.3 14.4-13.8-1.2-4-5.7-7-10-5.4-5.6 2.2-7.1 10.4-8.6 16.5-2-6.2-3.8-13.9-8.2-17.8A7.3 7.3 0 0 0 18 0c-4 .4-9.8 5.5-7.5 11 2.3 5.4 9.7 8.9 14.6 11.6H2.9A2.9 2.9 0 0 0 0 25.5v11.3c0 1.6 1.3 2.9 2.9 2.9h.3V76H61V39.6h.1c1.6 0 2.9-1.3 2.9-3V25.5c0-1.6-1.3-3-2.9-3ZM42.4 5.9c2.1-.4 5 1.3 5.3 3.2.4 2.8-3.4 5.3-5.1 6.3-2.5 1.7-4.9 2.7-7.3 4.2.9-3.8 2.5-13 7-13.8Zm-22.9 10c-2.2-1.6-6.5-4.5-6.4-7.8.1-3.7 5.7-6.7 8.8-4 3.9 3.5 5.7 11.1 7.1 16.7-3.2-1.5-6.3-2.9-9.5-5Zm6 57H6.1V39.7h19.4V73Zm0-36.4H3v-11h22.5v11Zm10.2 0V73h-7.2V25.6h7.2v10.9ZM58 73H38.6V39.6H58V73Zm2.9-36.5H38.6v-11h22.3v11Z" fill="#83B3D3"/></svg>