<svg width="24" height="14" fill="none" xmlns="http://www.w3.org/2000/svg"><path d="M23.45.94c.16-.54 0-.94-.8-.94h-2.62c-.67 0-.98.34-1.15.72 0 0-1.33 3.2-3.22 5.28-.62.6-.89.79-1.23.79-.16 0-.42-.19-.42-.74V.94c0-.65-.18-.94-.74-.94H9.15c-.42 0-.67.3-.67.59 0 .62.94.76 1.04 2.51v3.8c0 .83-.15.98-.49.98-.89 0-3.05-3.21-4.34-6.88-.25-.72-.5-1-1.17-1H.9C.15 0 0 .34 0 .72c0 .69.89 4.08 4.14 8.56C6.31 12.34 9.37 14 12.15 14c1.67 0 1.87-.37 1.87-1.01v-2.31c0-.74.16-.88.69-.88.39 0 1.06.19 2.62 1.66C19.11 13.21 19.4 14 20.4 14h2.63c.75 0 1.12-.37.9-1.1-.23-.73-1.08-1.78-2.21-3.02-.61-.71-1.53-1.48-1.81-1.86-.39-.49-.28-.71 0-1.15 0 0 3.2-4.42 3.53-5.93h.01Z" fill="#83B3D3" fill-rule="evenodd"/></svg>